HIERARCHY
ROOT Hips
{
	OFFSET -0.001795 -0.223333 0.028219
	CHANNELS 6 Xposition Yposition Zposition Zrotation Yrotation Xrotation 
	JOINT LeftUpLeg
	{
		OFFSET 0.069520 -0.091406 -0.006815
		CHANNELS 3 Zrotation Yrotation Xrotation
		JOINT LeftLeg
		{
			OFFSET 0.034277 -0.375199 -0.004496
			CHANNELS 3 Zrotation Yrotation Xrotation
			JOINT LeftFoot
			{
				OFFSET -0.013596 -0.397961 -0.043693
				CHANNELS 3 Zrotation Yrotation Xrotation
				JOINT LeftToe
				{
					OFFSET 0.026358 -0.055791 0.119288
					CHANNELS 3 Zrotation Yrotation Xrotation
					End Site
					{
						OFFSET 0.000000 0.000000 0.000000
					}
				}
			}
		}
	}
	JOINT RightUpLeg
	{
		OFFSET -0.067670 -0.090522 -0.004320
		CHANNELS 3 Zrotation Yrotation Xrotation
		JOINT RightLeg
		{
			OFFSET -0.038290 -0.382569 -0.008850
			CHANNELS 3 Zrotation Yrotation Xrotation
			JOINT RightFoot
			{
				OFFSET 0.015774 -0.398415 -0.042312
				CHANNELS 3 Zrotation Yrotation Xrotation
				JOINT RightToe
				{
					OFFSET -0.025372 -0.048144 0.123348
					CHANNELS 3 Zrotation Yrotation Xrotation
					End Site
					{
						OFFSET 0.000000 0.000000 0.000000
					}
				}
			}
		}
	}
	JOINT Spine
	{
		OFFSET -0.002533 0.108963 -0.026696
		CHANNELS 3 Zrotation Yrotation Xrotation
		JOINT Spine1
		{
			OFFSET 0.005487 0.135180 0.001092
			CHANNELS 3 Zrotation Yrotation Xrotation
			JOINT Spine2
			{
				OFFSET 0.001457 0.052922 0.025425
				CHANNELS 3 Zrotation Yrotation Xrotation
				JOINT Neck
				{
					OFFSET -0.002778 0.213870 -0.042857
					CHANNELS 3 Zrotation Yrotation Xrotation
					JOINT Head
					{
						OFFSET 0.005152 0.064970 0.051349
						CHANNELS 3 Zrotation Yrotation Xrotation
						End Site
						{
							OFFSET 0.000000 0.000000 0.000000
						}
					}
				}
				JOINT LeftShoulder
				{
					OFFSET 0.078845 0.121749 -0.034090
					CHANNELS 3 Zrotation Yrotation Xrotation
					JOINT LeftArm
					{
						OFFSET 0.090977 0.030469 -0.008868
						CHANNELS 3 Zrotation Yrotation Xrotation
						JOINT LeftForeArm
						{
							OFFSET 0.259612 -0.012772 -0.027456
							CHANNELS 3 Zrotation Yrotation Xrotation
							JOINT LeftHand
							{
								OFFSET 0.249234 0.008986 -0.001171
								CHANNELS 3 Zrotation Yrotation Xrotation
								End Site
								{
									OFFSET 0.000000 0.000000 0.000000
								}
							}
						}
					}
				}
				JOINT RightShoulder
				{
					OFFSET -0.081759 0.118833 -0.038615
					CHANNELS 3 Zrotation Yrotation Xrotation
					JOINT RightArm
					{
						OFFSET -0.096012 0.032551 -0.009143
						CHANNELS 3 Zrotation Yrotation Xrotation
						JOINT RightForeArm
						{
							OFFSET -0.253742 -0.013329 -0.021401
							CHANNELS 3 Zrotation Yrotation Xrotation
							JOINT RightHand
							{
								OFFSET -0.255298 0.007772 -0.005559
								CHANNELS 3 Zrotation Yrotation Xrotation
								End Site
								{
									OFFSET 0.000000 0.000000 0.000000
								}
							}
						}
					}
				}
			}
		}
	}
}
MOTION
Frames: 5
Frame Time: 0.050000
0.000000 0.859401 0.000000 1.061086 -18.578704 0.122441 13.398812 4.156561 -37.089856 -8.478210 2.395483 14.620582 9.447355 17.069678 19.891268 0.000000 0.000000 0.000000 -7.408603 0.535468 2.216946 4.315264 1.606317 30.764341 -7.626997 -6.385438 -21.174638 0.000000 0.000000 0.000000 2.272062 -0.503791 21.509522 -6.503246 1.888024 -22.588927 1.727248 13.380479 28.555837 10.762178 -4.392642 -25.394906 0.000000 0.000000 0.000000 -20.616887 -11.419056 4.799047 -45.494198 -10.889256 -3.669371 -9.909057 -30.349345 4.055735 0.000000 0.000000 0.000000 29.306037 2.829868 0.841533 43.881527 19.360016 -0.112209 9.420251 35.759671 4.761334 0.000000 0.000000 0.000000 
0.018619 0.846523 0.043844 -0.996037 -19.689711 1.691890 14.407050 5.349561 -40.131476 -9.452436 3.453633 20.894872 9.207734 16.649567 21.324098 0.000000 0.000000 0.000000 -8.238615 0.735136 -3.783411 6.874997 2.392197 43.785435 -6.146990 -5.995067 -16.271565 0.000000 0.000000 0.000000 3.149868 -0.631546 23.436768 -6.785610 1.938569 -21.296710 1.625583 11.492674 26.912939 10.218771 -4.954178 -22.151991 0.000000 0.000000 0.000000 -23.816467 -10.536493 5.106804 -42.402541 -12.185007 -3.231431 -8.081900 -31.101891 3.758731 0.000000 0.000000 0.000000 29.608755 3.597753 0.380018 43.574077 18.591169 -0.038889 9.929248 37.678462 5.007036 0.000000 0.000000 0.000000 
0.037489 0.841458 0.082397 -0.431042 -19.458138 2.266154 12.693045 5.128186 -43.769492 -11.672632 6.168882 32.575879 8.253408 15.852624 14.477707 0.000000 0.000000 0.000000 -13.415072 1.090167 -11.891561 16.553960 -1.853950 58.029185 -5.111353 -10.287352 -6.628946 0.000000 0.000000 0.000000 1.361965 -0.123288 26.952432 -5.201565 1.483761 -20.486409 0.691210 9.505451 26.685034 10.186076 -4.853697 -23.977910 0.000000 0.000000 0.000000 -26.487151 -13.837271 7.781144 -37.299307 -14.678278 -2.429179 -5.917176 -31.476214 3.115983 0.000000 0.000000 0.000000 29.003991 7.688360 2.632787 40.626797 19.417427 0.213628 6.431793 38.654611 3.778994 0.000000 0.000000 0.000000 
0.054937 0.836625 0.111565 -1.474747 -21.565520 3.599989 14.079593 6.584148 -45.015890 -14.458383 8.609572 36.243344 8.653422 16.429669 10.759261 0.000000 0.000000 0.000000 -15.731085 1.438135 -22.120935 24.968249 -7.384172 67.924447 -8.750152 -21.824190 3.109515 0.000000 0.000000 0.000000 1.712516 0.225111 31.858060 -5.895591 1.618093 -20.527173 -0.138539 8.237151 24.549634 10.353816 -5.572066 -21.416161 0.000000 0.000000 0.000000 -26.144590 -15.722011 9.436124 -34.306034 -15.398341 -2.161712 -4.398412 -34.994627 3.012007 0.000000 0.000000 0.000000 30.571053 9.328376 2.961051 36.054684 19.918561 0.466221 6.665374 40.430086 3.812111 0.000000 0.000000 0.000000 
0.071169 0.827074 0.132205 -2.105738 -25.048226 4.974367 14.151786 8.486409 -48.217626 -15.115748 11.629293 44.509881 9.106671 17.240329 4.104301 0.000000 0.000000 0.000000 -18.931235 2.147890 -33.766555 38.290609 -16.595885 67.839844 -15.514431 -35.223392 6.674897 0.000000 0.000000 0.000000 1.597372 1.365732 38.846614 -5.591559 1.413417 -23.733993 -1.760484 7.431577 25.492338 10.118467 -5.484213 -22.843393 0.000000 0.000000 0.000000 -26.726564 -19.120514 12.328349 -28.950976 -18.517683 -1.590008 0.984890 -34.937126 1.205507 0.000000 0.000000 0.000000 30.570167 12.610899 4.540790 33.259962 22.608445 1.060425 3.522174 39.612726 2.505397 0.000000 0.000000 0.000000 
